<svg width="97" height="97" viewBox="0 0 97 97" fill="none" xmlns="http://www.w3.org/2000/svg">
<path opacity="0.4" d="M92.6501 74.1654C91.3785 77.5717 88.6989 80.1604 85.2018 81.3413C80.2968 82.9763 75.2556 84.2025 70.1689 85.0654C69.6693 85.1563 69.1697 85.2471 68.6701 85.2925C67.8526 85.4288 67.0351 85.5196 66.2176 85.6104C65.2185 85.7467 64.1739 85.8375 63.1293 85.9283C60.2681 86.1554 57.4522 86.2917 54.591 86.2917C51.6843 86.2917 48.7776 86.1554 45.9164 85.8829C44.6901 85.7921 43.5093 85.6558 42.3285 85.4742C41.6472 85.3833 40.966 85.2925 40.3301 85.2017C39.8306 85.1108 39.331 85.0654 38.8314 84.9746C33.7901 84.1571 28.7943 82.9308 23.9347 81.2958C20.3014 80.0696 17.531 77.4808 16.3047 74.1654C15.0785 70.8954 15.5326 67.0804 17.4856 63.8104L22.6176 55.2721C23.7076 53.41 24.7068 49.8221 24.7068 47.6421V39.1946C24.7068 22.7083 38.1047 9.31042 54.591 9.31042C71.0318 9.31042 84.4297 22.7083 84.4297 39.1946V47.6421C84.4297 49.8221 85.4289 53.41 86.5643 55.2721L91.6964 63.8104C93.5585 66.9896 93.9218 70.7138 92.6501 74.1654Z" fill="#FF7011"/>
<path d="M54.5 48.8684C52.5925 48.8684 51.0483 47.3242 51.0483 45.4167V31.3375C51.0483 29.43 52.5925 27.8859 54.5 27.8859C56.4075 27.8859 57.9517 29.43 57.9517 31.3375V45.4167C57.9063 47.3242 56.3621 48.8684 54.5 48.8684Z" fill="#FF7011"/>
<path d="M67.3528 90.8787C65.4453 96.1471 60.404 99.9166 54.4999 99.9166C50.912 99.9166 47.3695 98.4633 44.8715 95.8746C43.4182 94.5121 42.3282 92.6954 41.6924 90.8333C42.2828 90.9241 42.8732 90.9696 43.509 91.0604C44.5536 91.1966 45.6436 91.3329 46.7336 91.4237C49.3224 91.6508 51.9566 91.7871 54.5907 91.7871C57.1795 91.7871 59.7682 91.6508 62.3116 91.4237C63.2653 91.3329 64.2191 91.2875 65.1274 91.1512C65.8541 91.0604 66.5807 90.9696 67.3528 90.8787Z" fill="#FF7011"/>
</svg>
