<svg width="120" height="17" viewBox="0 0 120 17" fill="none" xmlns="http://www.w3.org/2000/svg">
<path d="M15.2314 8.12598C15.2314 9.33626 15.0811 10.4391 14.7803 11.4346C14.4795 12.4229 14.0212 13.2751 13.4053 13.9912C12.7965 14.7074 12.0231 15.2588 11.085 15.6455C10.1468 16.0251 9.03678 16.2148 7.75488 16.2148C6.47298 16.2148 5.36296 16.0251 4.4248 15.6455C3.48665 15.2588 2.70964 14.7074 2.09375 13.9912C1.48503 13.2751 1.03027 12.4193 0.729492 11.4238C0.428711 10.4284 0.27832 9.32194 0.27832 8.10449C0.27832 6.47884 0.543294 5.06445 1.07324 3.86133C1.61035 2.65104 2.43392 1.71289 3.54395 1.04688C4.65397 0.380859 6.06478 0.0478516 7.77637 0.0478516C9.48079 0.0478516 10.8809 0.380859 11.9766 1.04688C13.0794 1.71289 13.8958 2.65104 14.4258 3.86133C14.9629 5.07161 15.2314 6.49316 15.2314 8.12598ZM3.76953 8.12598C3.76953 9.22168 3.9056 10.167 4.17773 10.9619C4.45703 11.7497 4.8903 12.3584 5.47754 12.7881C6.06478 13.2106 6.82389 13.4219 7.75488 13.4219C8.7002 13.4219 9.46647 13.2106 10.0537 12.7881C10.641 12.3584 11.0671 11.7497 11.332 10.9619C11.6042 10.167 11.7402 9.22168 11.7402 8.12598C11.7402 6.47884 11.4323 5.18262 10.8164 4.2373C10.2005 3.29199 9.18717 2.81934 7.77637 2.81934C6.83822 2.81934 6.07194 3.03418 5.47754 3.46387C4.8903 3.88639 4.45703 4.49512 4.17773 5.29004C3.9056 6.0778 3.76953 7.02311 3.76953 8.12598ZM23.0625 0.294922C24.4876 0.294922 25.6621 0.466797 26.5859 0.810547C27.5169 1.1543 28.208 1.6735 28.6592 2.36816C29.1104 3.06283 29.3359 3.9401 29.3359 5C29.3359 5.71615 29.1999 6.34277 28.9277 6.87988C28.6556 7.41699 28.2975 7.87174 27.8535 8.24414C27.4095 8.61654 26.9297 8.9209 26.4141 9.15723L31.0332 16H27.3379L23.5889 9.97363H21.8164V16H18.4863V0.294922H23.0625ZM22.8262 3.02344H21.8164V7.2666H22.8906C23.9935 7.2666 24.7812 7.08398 25.2539 6.71875C25.7337 6.34635 25.9736 5.80208 25.9736 5.08594C25.9736 4.34115 25.7158 3.8112 25.2002 3.49609C24.6917 3.18099 23.9004 3.02344 22.8262 3.02344ZM43.2471 16H31.5596V13.8408L39.0898 3.04492H31.7637V0.294922H43.043V2.44336L35.5234 13.25H43.2471V16ZM58.5332 0.294922V10.457C58.5332 11.5384 58.2933 12.516 57.8135 13.3896C57.3408 14.2562 56.6211 14.9437 55.6543 15.4521C54.6947 15.9606 53.4844 16.2148 52.0234 16.2148C49.9466 16.2148 48.3639 15.6849 47.2754 14.625C46.1868 13.5651 45.6426 12.1615 45.6426 10.4141V0.294922H48.9619V9.90918C48.9619 11.2054 49.2269 12.1149 49.7568 12.6377C50.2868 13.1605 51.071 13.4219 52.1094 13.4219C52.8398 13.4219 53.4307 13.2965 53.8818 13.0459C54.3402 12.7952 54.6768 12.4085 54.8916 11.8857C55.1064 11.363 55.2139 10.6969 55.2139 9.8877V0.294922H58.5332Z" fill="#14A23C"/>
<path d="M62.3789 0.294922H67.2666C69.3577 0.294922 70.9404 0.588542 72.0146 1.17578C73.0889 1.76302 73.626 2.79427 73.626 4.26953C73.626 4.86393 73.5293 5.40104 73.3359 5.88086C73.1497 6.36068 72.8776 6.75456 72.5195 7.0625C72.1615 7.37044 71.7246 7.57096 71.209 7.66406V7.77148C71.7318 7.87891 72.2044 8.0651 72.627 8.33008C73.0495 8.58789 73.3861 8.96745 73.6367 9.46875C73.8945 9.96289 74.0234 10.6217 74.0234 11.4453C74.0234 12.3978 73.7907 13.2142 73.3252 13.8945C72.8597 14.5749 72.1937 15.0977 71.3271 15.4629C70.4678 15.821 69.4437 16 68.2549 16H62.3789V0.294922ZM65.709 6.51465H67.6426C68.6094 6.51465 69.279 6.36426 69.6514 6.06348C70.0238 5.75553 70.21 5.30436 70.21 4.70996C70.21 4.1084 69.988 3.67871 69.5439 3.4209C69.1071 3.15592 68.4124 3.02344 67.46 3.02344H65.709V6.51465ZM65.709 9.15723V13.25H67.8789C68.8815 13.25 69.5798 13.0566 69.9736 12.6699C70.3675 12.2832 70.5645 11.764 70.5645 11.1123C70.5645 10.7256 70.4785 10.3854 70.3066 10.0918C70.1348 9.79818 69.8447 9.56901 69.4365 9.4043C69.0355 9.23958 68.4805 9.15723 67.7715 9.15723H65.709ZM77.1602 16V0.294922H80.4902V13.25H86.8604V16H77.1602ZM103.854 8.12598C103.854 9.33626 103.704 10.4391 103.403 11.4346C103.103 12.4229 102.644 13.2751 102.028 13.9912C101.42 14.7074 100.646 15.2588 99.708 15.6455C98.7699 16.0251 97.6598 16.2148 96.3779 16.2148C95.096 16.2148 93.986 16.0251 93.0479 15.6455C92.1097 15.2588 91.3327 14.7074 90.7168 13.9912C90.1081 13.2751 89.6533 12.4193 89.3525 11.4238C89.0518 10.4284 88.9014 9.32194 88.9014 8.10449C88.9014 6.47884 89.1663 5.06445 89.6963 3.86133C90.2334 2.65104 91.057 1.71289 92.167 1.04688C93.277 0.380859 94.6878 0.0478516 96.3994 0.0478516C98.1038 0.0478516 99.5039 0.380859 100.6 1.04688C101.702 1.71289 102.519 2.65104 103.049 3.86133C103.586 5.07161 103.854 6.49316 103.854 8.12598ZM92.3926 8.12598C92.3926 9.22168 92.5286 10.167 92.8008 10.9619C93.0801 11.7497 93.5133 12.3584 94.1006 12.7881C94.6878 13.2106 95.4469 13.4219 96.3779 13.4219C97.3232 13.4219 98.0895 13.2106 98.6768 12.7881C99.264 12.3584 99.6901 11.7497 99.9551 10.9619C100.227 10.167 100.363 9.22168 100.363 8.12598C100.363 6.47884 100.055 5.18262 99.4395 4.2373C98.8236 3.29199 97.8102 2.81934 96.3994 2.81934C95.4613 2.81934 94.695 3.03418 94.1006 3.46387C93.5133 3.88639 93.0801 4.49512 92.8008 5.29004C92.5286 6.0778 92.3926 7.02311 92.3926 8.12598ZM113.071 7.18066H119.302V15.3232C118.478 15.5954 117.622 15.8138 116.734 15.9785C115.846 16.1361 114.84 16.2148 113.716 16.2148C112.155 16.2148 110.83 15.9069 109.741 15.291C108.653 14.6751 107.826 13.7656 107.26 12.5625C106.694 11.3594 106.411 9.88053 106.411 8.12598C106.411 6.47884 106.726 5.05371 107.356 3.85059C107.994 2.64746 108.921 1.71647 110.139 1.05762C111.363 0.398763 112.856 0.0693359 114.618 0.0693359C115.449 0.0693359 116.269 0.158854 117.078 0.337891C117.887 0.516927 118.621 0.749674 119.28 1.03613L118.174 3.7002C117.694 3.45671 117.146 3.2526 116.53 3.08789C115.914 2.92318 115.27 2.84082 114.597 2.84082C113.63 2.84082 112.788 3.06283 112.072 3.50684C111.363 3.95085 110.812 4.57389 110.418 5.37598C110.031 6.1709 109.838 7.10905 109.838 8.19043C109.838 9.21452 109.978 10.124 110.257 10.9189C110.536 11.7067 110.977 12.3262 111.578 12.7773C112.18 13.2214 112.964 13.4434 113.931 13.4434C114.403 13.4434 114.801 13.4219 115.123 13.3789C115.452 13.3288 115.76 13.2786 116.047 13.2285V9.95215H113.071V7.18066Z" fill="#FF7011"/>
</svg>
