<svg width="97" height="97" viewBox="0 0 97 97" fill="none" xmlns="http://www.w3.org/2000/svg">
<path opacity="0.4" d="M26.0692 72.6667C26.5687 70.4412 25.6604 67.2621 24.0708 65.6725L13.0346 54.6362C9.58291 51.1846 8.22041 47.5058 9.21957 44.3266C10.2642 41.1475 13.4887 38.9675 18.3029 38.15L32.4729 35.7883C34.5167 35.425 37.0146 33.6083 37.9683 31.7462L45.78 16.0775C48.0508 11.5812 51.1392 9.08331 54.5 9.08331C57.8608 9.08331 60.9492 11.5812 63.22 16.0775L71.0317 31.7462C71.6221 32.9271 72.8483 34.0625 74.1654 34.8346L25.2517 83.7483C24.6158 84.3842 23.5258 83.7937 23.7075 82.8854L26.0692 72.6667Z" fill="#FF7011"/>
<path d="M84.9293 65.6725C83.2943 67.3075 82.386 70.4412 82.931 72.6667L86.0647 86.3371C87.3818 92.0142 86.5643 96.2833 83.7485 98.3271C82.613 99.1446 81.2505 99.5533 79.661 99.5533C77.3447 99.5533 74.6197 98.6904 71.6222 96.9192L58.3151 89.0167C56.226 87.7904 52.7743 87.7904 50.6851 89.0167L37.378 96.9192C32.3368 99.8712 28.0222 100.371 25.2518 98.3271C24.2072 97.555 23.4351 96.5104 22.9355 95.1479L78.1622 39.9212C80.2514 37.8321 83.2035 36.8783 86.0647 37.3779L90.6518 38.15C95.466 38.9675 98.6905 41.1475 99.7351 44.3267C100.734 47.5058 99.3718 51.1846 95.9201 54.6362L84.9293 65.6725Z" fill="#FF7011"/>
</svg>
